<svg xmlns="http://www.w3.org/2000/svg" xmlns:xlink="http://www.w3.org/1999/xlink" width="256" zoomAndPan="magnify" viewBox="0 0 192 92.249997" height="123" preserveAspectRatio="xMidYMid meet" version="1.0"><defs><g/></defs><path stroke-linecap="butt" transform="matrix(0, 0.743952, -0.743952, 0, 55.59263, 28.25845)" fill="none" stroke-linejoin="miter" d="M -0.000856258 0.50256 L 53.136004 0.50256 " stroke="#e3b94d" stroke-width="1" stroke-opacity="1" stroke-miterlimit="4"/><path stroke-linecap="butt" transform="matrix(0, 0.743952, -0.743952, 0, 127.703898, 28.415077)" fill="none" stroke-linejoin="miter" d="M -0.00136386 0.499853 L 53.135496 0.499853 " stroke="#e3b94d" stroke-width="1" stroke-opacity="1" stroke-miterlimit="4"/><g fill="#ffd873" fill-opacity="1"><g transform="translate(80.768869, 50.867854)"><g><path d="M 0.28125 -18.203125 C 1.34375 -18.203125 2.210938 -18.257812 2.890625 -18.375 C 3.578125 -18.488281 4.140625 -18.6875 4.578125 -18.96875 C 5.015625 -19.257812 5.398438 -19.660156 5.734375 -20.171875 L 6.015625 -20.171875 L 6.015625 -2.15625 C 6.015625 -1.625 6.054688 -1.222656 6.140625 -0.953125 C 6.234375 -0.679688 6.414062 -0.5 6.6875 -0.40625 C 6.957031 -0.320312 7.359375 -0.28125 7.890625 -0.28125 L 7.890625 0 L 1.59375 0 L 1.59375 -0.28125 C 2.144531 -0.28125 2.546875 -0.320312 2.796875 -0.40625 C 3.054688 -0.5 3.226562 -0.679688 3.3125 -0.953125 C 3.394531 -1.222656 3.4375 -1.625 3.4375 -2.15625 L 3.4375 -15.453125 C 3.4375 -16.128906 3.363281 -16.648438 3.21875 -17.015625 C 3.082031 -17.390625 2.789062 -17.644531 2.34375 -17.78125 C 1.894531 -17.914062 1.207031 -17.984375 0.28125 -17.984375 Z M 0.28125 -18.203125 "/></g></g></g><g fill="#ffd873" fill-opacity="1"><g transform="translate(89.972711, 50.867854)"><g><path d="M 13.859375 -20.171875 L 14.125 -20.171875 C 14.125 -18.972656 13.96875 -17.875 13.65625 -16.875 C 13.34375 -15.875 12.941406 -14.925781 12.453125 -14.03125 C 11.972656 -13.144531 11.453125 -12.265625 10.890625 -11.390625 C 10.335938 -10.515625 9.816406 -9.609375 9.328125 -8.671875 C 8.847656 -7.734375 8.453125 -6.71875 8.140625 -5.625 C 7.828125 -4.53125 7.671875 -3.300781 7.671875 -1.9375 C 7.671875 -1.226562 7.773438 -0.773438 7.984375 -0.578125 C 8.191406 -0.378906 8.644531 -0.28125 9.34375 -0.28125 L 9.34375 0 L 5.109375 0 L 5.109375 -1.421875 C 5.109375 -2.835938 5.285156 -4.113281 5.640625 -5.25 C 6.003906 -6.382812 6.472656 -7.421875 7.046875 -8.359375 C 7.628906 -9.296875 8.253906 -10.160156 8.921875 -10.953125 C 9.597656 -11.753906 10.257812 -12.523438 10.90625 -13.265625 C 11.550781 -14.003906 12.113281 -14.75 12.59375 -15.5 C 13.082031 -16.25 13.410156 -17.046875 13.578125 -17.890625 C 13.273438 -17.359375 12.835938 -16.941406 12.265625 -16.640625 C 11.703125 -16.335938 11.0625 -16.1875 10.34375 -16.1875 C 9.769531 -16.1875 9.226562 -16.273438 8.71875 -16.453125 C 8.207031 -16.640625 7.707031 -16.847656 7.21875 -17.078125 C 6.726562 -17.316406 6.226562 -17.523438 5.71875 -17.703125 C 5.21875 -17.890625 4.691406 -17.984375 4.140625 -17.984375 C 1.960938 -17.984375 0.875 -16.96875 0.875 -14.9375 L 0.59375 -14.9375 C 0.59375 -16.8125 0.925781 -18.148438 1.59375 -18.953125 C 2.269531 -19.765625 3.1875 -20.171875 4.34375 -20.171875 C 4.988281 -20.171875 5.597656 -20.054688 6.171875 -19.828125 C 6.753906 -19.597656 7.320312 -19.34375 7.875 -19.0625 C 8.4375 -18.78125 8.992188 -18.523438 9.546875 -18.296875 C 10.109375 -18.066406 10.6875 -17.953125 11.28125 -17.953125 C 12.207031 -17.953125 12.867188 -18.160156 13.265625 -18.578125 C 13.660156 -18.992188 13.859375 -19.523438 13.859375 -20.171875 Z M 13.859375 -20.171875 "/></g></g></g><g fill="#e3bd59" fill-opacity="1"><g transform="translate(9.54893, 52.84067)"><g><path d="M 2.171875 -5.4375 C 1.953125 -5.4375 1.769531 -5.351562 1.625 -5.1875 C 1.488281 -5.019531 1.421875 -4.832031 1.421875 -4.625 C 1.421875 -4.414062 1.519531 -4.210938 1.71875 -4.015625 C 1.925781 -3.816406 2.171875 -3.644531 2.453125 -3.5 C 2.742188 -3.351562 3.03125 -3.195312 3.3125 -3.03125 C 3.59375 -2.863281 3.832031 -2.648438 4.03125 -2.390625 C 4.238281 -2.140625 4.34375 -1.851562 4.34375 -1.53125 C 4.34375 -1.050781 4.148438 -0.648438 3.765625 -0.328125 C 3.378906 -0.00390625 2.851562 0.15625 2.1875 0.15625 C 1.519531 0.15625 0.910156 0 0.359375 -0.3125 L 0.359375 -0.796875 C 0.941406 -0.503906 1.46875 -0.359375 1.9375 -0.359375 C 2.414062 -0.359375 2.757812 -0.453125 2.96875 -0.640625 C 3.1875 -0.828125 3.296875 -1.039062 3.296875 -1.28125 C 3.296875 -1.53125 3.195312 -1.753906 3 -1.953125 C 2.8125 -2.148438 2.578125 -2.320312 2.296875 -2.46875 C 2.015625 -2.613281 1.738281 -2.765625 1.46875 -2.921875 C 1.195312 -3.085938 0.960938 -3.296875 0.765625 -3.546875 C 0.578125 -3.804688 0.484375 -4.117188 0.484375 -4.484375 C 0.484375 -4.859375 0.628906 -5.203125 0.921875 -5.515625 C 1.210938 -5.828125 1.664062 -5.984375 2.28125 -5.984375 C 2.90625 -5.984375 3.503906 -5.867188 4.078125 -5.640625 L 3.9375 -4.796875 C 3.300781 -5.140625 2.710938 -5.351562 2.171875 -5.4375 Z M 2.171875 -5.4375 "/></g></g></g><g fill="#e3bd59" fill-opacity="1"><g transform="translate(14.344464, 52.84067)"><g><path d="M 3.671875 -1.359375 L 3.671875 -2.6875 C 3.054688 -2.644531 2.550781 -2.507812 2.15625 -2.28125 C 1.757812 -2.050781 1.5625 -1.800781 1.5625 -1.53125 C 1.5625 -1.269531 1.628906 -1.039062 1.765625 -0.84375 C 1.898438 -0.644531 2.078125 -0.507812 2.296875 -0.4375 C 2.578125 -0.488281 2.875 -0.628906 3.1875 -0.859375 C 3.507812 -1.097656 3.671875 -1.265625 3.671875 -1.359375 Z M 4.734375 -1.71875 C 4.734375 -1.101562 4.957031 -0.640625 5.40625 -0.328125 L 4.734375 0.171875 L 3.6875 -0.765625 C 3.007812 -0.148438 2.378906 0.15625 1.796875 0.15625 C 1.421875 0.15625 1.097656 0.0351562 0.828125 -0.203125 C 0.554688 -0.441406 0.421875 -0.742188 0.421875 -1.109375 C 0.421875 -1.472656 0.53125 -1.773438 0.75 -2.015625 C 0.96875 -2.265625 1.257812 -2.453125 1.625 -2.578125 C 2.238281 -2.804688 2.921875 -2.953125 3.671875 -3.015625 L 3.671875 -4.234375 C 3.671875 -4.941406 3.257812 -5.296875 2.4375 -5.296875 C 1.96875 -5.296875 1.410156 -5.191406 0.765625 -4.984375 L 0.640625 -5.3125 C 0.816406 -5.445312 1.113281 -5.59375 1.53125 -5.75 C 1.957031 -5.90625 2.363281 -5.984375 2.75 -5.984375 C 3.144531 -5.984375 3.472656 -5.929688 3.734375 -5.828125 C 3.992188 -5.722656 4.1875 -5.601562 4.3125 -5.46875 C 4.4375 -5.34375 4.53125 -5.164062 4.59375 -4.9375 C 4.664062 -4.71875 4.707031 -4.546875 4.71875 -4.421875 C 4.726562 -4.296875 4.734375 -4.125 4.734375 -3.90625 Z M 2.4375 -6.53125 L 1.921875 -6.53125 L 4.140625 -8.953125 L 4.859375 -8.3125 Z M 2.4375 -6.53125 "/></g></g></g><g fill="#e3bd59" fill-opacity="1"><g transform="translate(20.068167, 52.84067)"><g><path d="M 1.96875 -5.015625 C 2.519531 -5.640625 3.125 -5.953125 3.78125 -5.953125 C 4.4375 -5.953125 4.972656 -5.6875 5.390625 -5.15625 C 5.804688 -4.632812 6.015625 -3.90625 6.015625 -2.96875 C 6.015625 -2.03125 5.703125 -1.269531 5.078125 -0.6875 C 4.460938 -0.113281 3.707031 0.171875 2.8125 0.171875 C 2.132812 0.171875 1.492188 0.00390625 0.890625 -0.328125 L 0.890625 -8.796875 L 1.96875 -8.796875 Z M 1.96875 -4.40625 L 1.96875 -0.71875 C 2.40625 -0.488281 2.859375 -0.375 3.328125 -0.375 C 3.804688 -0.375 4.1875 -0.601562 4.46875 -1.0625 C 4.757812 -1.53125 4.90625 -2.109375 4.90625 -2.796875 C 4.90625 -3.484375 4.765625 -4.03125 4.484375 -4.4375 C 4.203125 -4.851562 3.847656 -5.128906 3.421875 -5.265625 C 3.179688 -5.253906 2.941406 -5.179688 2.703125 -5.046875 C 2.472656 -4.921875 2.289062 -4.796875 2.15625 -4.671875 C 2.03125 -4.546875 1.96875 -4.457031 1.96875 -4.40625 Z M 1.96875 -4.40625 "/></g></g></g><g fill="#e3bd59" fill-opacity="1"><g transform="translate(26.513775, 52.84067)"><g><path d="M 3.671875 -1.359375 L 3.671875 -2.6875 C 3.054688 -2.644531 2.550781 -2.507812 2.15625 -2.28125 C 1.757812 -2.050781 1.5625 -1.800781 1.5625 -1.53125 C 1.5625 -1.269531 1.628906 -1.039062 1.765625 -0.84375 C 1.898438 -0.644531 2.078125 -0.507812 2.296875 -0.4375 C 2.578125 -0.488281 2.875 -0.628906 3.1875 -0.859375 C 3.507812 -1.097656 3.671875 -1.265625 3.671875 -1.359375 Z M 4.734375 -1.71875 C 4.734375 -1.101562 4.957031 -0.640625 5.40625 -0.328125 L 4.734375 0.171875 L 3.6875 -0.765625 C 3.007812 -0.148438 2.378906 0.15625 1.796875 0.15625 C 1.421875 0.15625 1.097656 0.0351562 0.828125 -0.203125 C 0.554688 -0.441406 0.421875 -0.742188 0.421875 -1.109375 C 0.421875 -1.472656 0.53125 -1.773438 0.75 -2.015625 C 0.96875 -2.265625 1.257812 -2.453125 1.625 -2.578125 C 2.238281 -2.804688 2.921875 -2.953125 3.671875 -3.015625 L 3.671875 -4.234375 C 3.671875 -4.941406 3.257812 -5.296875 2.4375 -5.296875 C 1.96875 -5.296875 1.410156 -5.191406 0.765625 -4.984375 L 0.640625 -5.3125 C 0.816406 -5.445312 1.113281 -5.59375 1.53125 -5.75 C 1.957031 -5.90625 2.363281 -5.984375 2.75 -5.984375 C 3.144531 -5.984375 3.472656 -5.929688 3.734375 -5.828125 C 3.992188 -5.722656 4.1875 -5.601562 4.3125 -5.46875 C 4.4375 -5.34375 4.53125 -5.164062 4.59375 -4.9375 C 4.664062 -4.71875 4.707031 -4.546875 4.71875 -4.421875 C 4.726562 -4.296875 4.734375 -4.125 4.734375 -3.90625 Z M 4.734375 -1.71875 "/></g></g></g><g fill="#e3bd59" fill-opacity="1"><g transform="translate(32.237478, 52.84067)"><g><path d="M 5.46875 -1.734375 C 5.46875 -1.140625 5.6875 -0.664062 6.125 -0.3125 L 5.46875 0.171875 L 4.40625 -0.765625 C 4.0625 -0.441406 3.75 -0.207031 3.46875 -0.0625 C 3.195312 0.0820312 2.914062 0.15625 2.625 0.15625 C 2.332031 0.15625 2.070312 0.109375 1.84375 0.015625 C 1.625 -0.0664062 1.390625 -0.207031 1.140625 -0.40625 C 0.898438 -0.601562 0.703125 -0.921875 0.546875 -1.359375 C 0.398438 -1.796875 0.328125 -2.359375 0.328125 -3.046875 C 0.328125 -3.734375 0.53125 -4.390625 0.9375 -5.015625 C 1.351562 -5.648438 1.914062 -5.96875 2.625 -5.96875 C 3.15625 -5.96875 3.738281 -5.769531 4.375 -5.375 L 4.375 -8.796875 L 5.46875 -8.796875 Z M 4.375 -1.296875 L 4.375 -4.890625 C 3.914062 -5.191406 3.5 -5.34375 3.125 -5.34375 C 2.625 -5.34375 2.222656 -5.109375 1.921875 -4.640625 C 1.617188 -4.171875 1.46875 -3.582031 1.46875 -2.875 C 1.46875 -2.175781 1.578125 -1.613281 1.796875 -1.1875 C 2.015625 -0.757812 2.285156 -0.503906 2.609375 -0.421875 C 2.910156 -0.453125 3.207031 -0.523438 3.5 -0.640625 C 3.789062 -0.765625 4.007812 -0.890625 4.15625 -1.015625 C 4.300781 -1.140625 4.375 -1.234375 4.375 -1.296875 Z M 4.375 -1.296875 "/></g></g></g><g fill="#e3bd59" fill-opacity="1"><g transform="translate(38.683086, 52.84067)"><g><path d="M 3.453125 -5.984375 C 4.210938 -5.984375 4.835938 -5.722656 5.328125 -5.203125 C 5.828125 -4.691406 6.078125 -3.984375 6.078125 -3.078125 C 6.078125 -2.503906 5.976562 -2 5.78125 -1.5625 C 5.582031 -1.125 5.320312 -0.785156 5 -0.546875 C 4.394531 -0.078125 3.710938 0.15625 2.953125 0.15625 C 2.203125 0.15625 1.578125 -0.0976562 1.078125 -0.609375 C 0.585938 -1.128906 0.34375 -1.84375 0.34375 -2.75 C 0.34375 -3.320312 0.4375 -3.828125 0.625 -4.265625 C 0.820312 -4.703125 1.082031 -5.039062 1.40625 -5.28125 C 2.007812 -5.75 2.691406 -5.984375 3.453125 -5.984375 Z M 3.203125 -0.28125 C 3.578125 -0.28125 3.894531 -0.425781 4.15625 -0.71875 C 4.644531 -1.238281 4.890625 -1.925781 4.890625 -2.78125 C 4.890625 -3.632812 4.742188 -4.296875 4.453125 -4.765625 C 4.160156 -5.242188 3.679688 -5.484375 3.015625 -5.484375 C 2.523438 -5.296875 2.148438 -4.960938 1.890625 -4.484375 C 1.640625 -4.015625 1.515625 -3.441406 1.515625 -2.765625 C 1.515625 -2.085938 1.648438 -1.503906 1.921875 -1.015625 C 2.203125 -0.523438 2.628906 -0.28125 3.203125 -0.28125 Z M 3.203125 -0.28125 "/></g></g></g><g fill="#e3bd59" fill-opacity="1"><g transform="translate(137.202054, 52.84067)"><g><path d="M 0.25 1.078125 L 0.515625 0.25 C 1.078125 0.519531 1.675781 0.71875 2.3125 0.84375 C 2.863281 0.84375 3.320312 0.691406 3.6875 0.390625 C 4.0625 0.0976562 4.25 -0.332031 4.25 -0.90625 C 4.25 -1.488281 4.003906 -1.988281 3.515625 -2.40625 C 3.035156 -2.832031 2.269531 -3.046875 1.21875 -3.046875 L 0.84375 -3.046875 L 1.046875 -7.25 L 5.3125 -7.25 L 5.1875 -6.375 L 2.046875 -6.578125 L 1.890625 -3.359375 C 3.078125 -3.304688 3.972656 -3.050781 4.578125 -2.59375 C 5.179688 -2.144531 5.484375 -1.59375 5.484375 -0.9375 C 5.484375 -0.519531 5.382812 -0.15625 5.1875 0.15625 C 4.988281 0.476562 4.726562 0.726562 4.40625 0.90625 C 3.78125 1.226562 3.09375 1.390625 2.34375 1.390625 C 1.59375 1.390625 0.894531 1.285156 0.25 1.078125 Z M 0.25 1.078125 "/></g></g></g><g fill="#e3bd59" fill-opacity="1"><g transform="translate(143.647663, 52.84067)"><g><path d="M 0.84375 -0.0625 C 0.707031 -0.195312 0.640625 -0.363281 0.640625 -0.5625 C 0.640625 -0.757812 0.707031 -0.925781 0.84375 -1.0625 C 0.988281 -1.207031 1.160156 -1.28125 1.359375 -1.28125 C 1.554688 -1.28125 1.722656 -1.207031 1.859375 -1.0625 C 2.003906 -0.925781 2.078125 -0.757812 2.078125 -0.5625 C 2.078125 -0.363281 2.003906 -0.195312 1.859375 -0.0625 C 1.722656 0.0703125 1.554688 0.140625 1.359375 0.140625 C 1.160156 0.140625 0.988281 0.0703125 0.84375 -0.0625 Z M 0.84375 -4.6875 C 0.707031 -4.820312 0.640625 -4.988281 0.640625 -5.1875 C 0.640625 -5.382812 0.707031 -5.554688 0.84375 -5.703125 C 0.988281 -5.847656 1.160156 -5.921875 1.359375 -5.921875 C 1.554688 -5.921875 1.722656 -5.847656 1.859375 -5.703125 C 2.003906 -5.554688 2.078125 -5.382812 2.078125 -5.1875 C 2.078125 -4.988281 2.003906 -4.820312 1.859375 -4.6875 C 1.722656 -4.550781 1.554688 -4.484375 1.359375 -4.484375 C 1.160156 -4.484375 0.988281 -4.550781 0.84375 -4.6875 Z M 0.84375 -4.6875 "/></g></g></g><g fill="#e3bd59" fill-opacity="1"><g transform="translate(146.367713, 52.84067)"><g><path d="M 5.546875 -1.1875 C 5.546875 -0.375 5.226562 0.253906 4.59375 0.703125 C 3.96875 1.160156 3.28125 1.390625 2.53125 1.390625 C 1.789062 1.390625 1.03125 1.265625 0.25 1.015625 L 0.515625 0.1875 C 1.222656 0.53125 1.820312 0.75 2.3125 0.84375 C 2.863281 0.84375 3.332031 0.671875 3.71875 0.328125 C 4.101562 -0.015625 4.296875 -0.472656 4.296875 -1.046875 C 4.296875 -1.617188 4.070312 -2.09375 3.625 -2.46875 C 3.175781 -2.84375 2.476562 -3.03125 1.53125 -3.03125 L 1.515625 -3.375 C 3.128906 -3.476562 3.9375 -4.097656 3.9375 -5.234375 C 3.9375 -5.960938 3.550781 -6.46875 2.78125 -6.75 C 2.25 -6.75 1.585938 -6.628906 0.796875 -6.390625 L 0.546875 -7.203125 C 1.140625 -7.378906 1.710938 -7.46875 2.265625 -7.46875 C 3.097656 -7.46875 3.78125 -7.273438 4.3125 -6.890625 C 4.84375 -6.503906 5.109375 -5.972656 5.109375 -5.296875 C 5.109375 -4.859375 4.945312 -4.460938 4.625 -4.109375 C 4.300781 -3.753906 3.863281 -3.476562 3.3125 -3.28125 C 4.03125 -3.132812 4.582031 -2.867188 4.96875 -2.484375 C 5.351562 -2.097656 5.546875 -1.664062 5.546875 -1.1875 Z M 5.546875 -1.1875 "/></g></g></g><g fill="#e3bd59" fill-opacity="1"><g transform="translate(152.813322, 52.84067)"><g><path d="M 3.46875 -7.4375 C 4.226562 -7.4375 4.851562 -7.125 5.34375 -6.5 C 5.832031 -5.875 6.078125 -5 6.078125 -3.875 C 6.078125 -3.15625 5.976562 -2.519531 5.78125 -1.96875 C 5.582031 -1.425781 5.328125 -1.007812 5.015625 -0.71875 C 4.398438 -0.132812 3.710938 0.15625 2.953125 0.15625 C 2.191406 0.15625 1.5625 -0.164062 1.0625 -0.8125 C 0.570312 -1.457031 0.328125 -2.34375 0.328125 -3.46875 C 0.328125 -4.1875 0.425781 -4.8125 0.625 -5.34375 C 0.820312 -5.882812 1.082031 -6.300781 1.40625 -6.59375 C 2.019531 -7.15625 2.707031 -7.4375 3.46875 -7.4375 Z M 4.890625 -3.640625 C 4.890625 -4.523438 4.71875 -5.269531 4.375 -5.875 C 4.039062 -6.476562 3.617188 -6.78125 3.109375 -6.78125 C 2.597656 -6.78125 2.195312 -6.503906 1.90625 -5.953125 C 1.613281 -5.398438 1.46875 -4.65625 1.46875 -3.71875 C 1.46875 -2.78125 1.632812 -2 1.96875 -1.375 C 2.300781 -0.757812 2.703125 -0.453125 3.171875 -0.453125 C 4.316406 -0.453125 4.890625 -1.515625 4.890625 -3.640625 Z M 4.890625 -3.640625 "/></g></g></g><g fill="#e3bd59" fill-opacity="1"><g transform="translate(159.258931, 52.84067)"><g/></g></g><g fill="#e3bd59" fill-opacity="1"><g transform="translate(162.481729, 52.84067)"><g><path d="M 2.0625 -5 C 2.425781 -5.34375 2.742188 -5.59375 3.015625 -5.75 C 3.285156 -5.90625 3.5625 -5.984375 3.84375 -5.984375 C 4.132812 -5.984375 4.394531 -5.9375 4.625 -5.84375 C 4.851562 -5.75 5.085938 -5.59375 5.328125 -5.375 C 5.566406 -5.164062 5.757812 -4.835938 5.90625 -4.390625 C 6.0625 -3.953125 6.140625 -3.46875 6.140625 -2.9375 C 6.140625 -2.414062 6.050781 -1.925781 5.875 -1.46875 C 5.707031 -1.007812 5.4375 -0.613281 5.0625 -0.28125 C 4.695312 0.0507812 4.253906 0.21875 3.734375 0.21875 C 3.210938 0.21875 2.65625 0.015625 2.0625 -0.390625 L 2.0625 2.734375 L 0.96875 2.734375 L 0.96875 -4.09375 C 0.96875 -4.675781 0.742188 -5.140625 0.296875 -5.484375 L 0.96875 -5.984375 Z M 2.0625 -4.21875 L 2.0625 -0.765625 C 3.238281 -0.203125 4.070312 -0.289062 4.5625 -1.03125 C 4.832031 -1.445312 4.96875 -2 4.96875 -2.6875 C 4.96875 -3.382812 4.859375 -3.976562 4.640625 -4.46875 C 4.421875 -4.96875 4.144531 -5.269531 3.8125 -5.375 C 3.507812 -5.34375 3.210938 -5.234375 2.921875 -5.046875 C 2.640625 -4.867188 2.425781 -4.703125 2.28125 -4.546875 C 2.132812 -4.390625 2.0625 -4.28125 2.0625 -4.21875 Z M 2.0625 -4.21875 "/></g></g></g><g fill="#e3bd59" fill-opacity="1"><g transform="translate(168.927338, 52.84067)"><g><path d="M 1.109375 -0.0625 C 0.972656 -0.195312 0.90625 -0.363281 0.90625 -0.5625 C 0.90625 -0.757812 0.972656 -0.925781 1.109375 -1.0625 C 1.242188 -1.207031 1.410156 -1.28125 1.609375 -1.28125 C 1.804688 -1.28125 1.972656 -1.207031 2.109375 -1.0625 C 2.253906 -0.925781 2.328125 -0.757812 2.328125 -0.5625 C 2.328125 -0.363281 2.253906 -0.195312 2.109375 -0.0625 C 1.972656 0.0703125 1.804688 0.140625 1.609375 0.140625 C 1.410156 0.140625 1.242188 0.0703125 1.109375 -0.0625 Z M 1.109375 -0.0625 "/></g></g></g><g fill="#e3bd59" fill-opacity="1"><g transform="translate(172.150137, 52.84067)"><g><path d="M 7.578125 -5.984375 C 8.585938 -5.984375 9.09375 -5.210938 9.09375 -3.671875 L 9.09375 0 L 8.015625 0 L 8.015625 -3.78125 C 8.015625 -4.5 7.878906 -4.9375 7.609375 -5.09375 C 7.472656 -5.164062 7.28125 -5.203125 7.03125 -5.203125 C 6.789062 -5.203125 6.53125 -5.125 6.25 -4.96875 C 5.96875 -4.820312 5.765625 -4.65625 5.640625 -4.46875 L 5.640625 0 L 4.53125 0 L 4.53125 -3.84375 C 4.53125 -4.300781 4.460938 -4.640625 4.328125 -4.859375 C 4.191406 -5.085938 3.988281 -5.203125 3.71875 -5.203125 C 3.457031 -5.203125 3.203125 -5.140625 2.953125 -5.015625 C 2.710938 -4.898438 2.519531 -4.78125 2.375 -4.65625 C 2.226562 -4.539062 2.15625 -4.472656 2.15625 -4.453125 L 2.15625 0 L 1.0625 0 L 1.0625 -4.046875 C 1.0625 -4.628906 0.84375 -5.097656 0.40625 -5.453125 L 1.0625 -5.9375 L 2.09375 -5 C 2.5 -5.332031 2.851562 -5.578125 3.15625 -5.734375 C 3.457031 -5.898438 3.769531 -5.984375 4.09375 -5.984375 C 4.84375 -5.984375 5.304688 -5.632812 5.484375 -4.9375 C 5.785156 -5.28125 6.128906 -5.539062 6.515625 -5.71875 C 6.910156 -5.894531 7.265625 -5.984375 7.578125 -5.984375 Z M 7.578125 -5.984375 "/></g></g></g><g fill="#e3bd59" fill-opacity="1"><g transform="translate(182.179497, 52.84067)"><g><path d="M 1.109375 -0.0625 C 0.972656 -0.195312 0.90625 -0.363281 0.90625 -0.5625 C 0.90625 -0.757812 0.972656 -0.925781 1.109375 -1.0625 C 1.242188 -1.207031 1.410156 -1.28125 1.609375 -1.28125 C 1.804688 -1.28125 1.972656 -1.207031 2.109375 -1.0625 C 2.253906 -0.925781 2.328125 -0.757812 2.328125 -0.5625 C 2.328125 -0.363281 2.253906 -0.195312 2.109375 -0.0625 C 1.972656 0.0703125 1.804688 0.140625 1.609375 0.140625 C 1.410156 0.140625 1.242188 0.0703125 1.109375 -0.0625 Z M 1.109375 -0.0625 "/></g></g></g><g fill="#e3bd59" fill-opacity="1"><g transform="translate(81.047211, 62.258312)"><g><path d="M 6.40625 -5.0625 C 7.269531 -5.0625 7.703125 -4.410156 7.703125 -3.109375 L 7.703125 0 L 6.78125 0 L 6.78125 -3.203125 C 6.78125 -3.804688 6.664062 -4.175781 6.4375 -4.3125 C 6.320312 -4.375 6.160156 -4.40625 5.953125 -4.40625 C 5.742188 -4.40625 5.519531 -4.34375 5.28125 -4.21875 C 5.039062 -4.09375 4.867188 -3.945312 4.765625 -3.78125 L 4.765625 0 L 3.84375 0 L 3.84375 -3.25 C 3.84375 -3.632812 3.78125 -3.921875 3.65625 -4.109375 C 3.539062 -4.304688 3.367188 -4.40625 3.140625 -4.40625 C 2.921875 -4.40625 2.707031 -4.351562 2.5 -4.25 C 2.289062 -4.144531 2.125 -4.039062 2 -3.9375 C 1.882812 -3.84375 1.828125 -3.785156 1.828125 -3.765625 L 1.828125 0 L 0.90625 0 L 0.90625 -3.421875 C 0.90625 -3.921875 0.71875 -4.316406 0.34375 -4.609375 L 0.90625 -5.03125 L 1.78125 -4.234375 C 2.125 -4.515625 2.421875 -4.722656 2.671875 -4.859375 C 2.921875 -4.992188 3.1875 -5.0625 3.46875 -5.0625 C 4.101562 -5.0625 4.492188 -4.765625 4.640625 -4.171875 C 4.898438 -4.460938 5.191406 -4.679688 5.515625 -4.828125 C 5.847656 -4.984375 6.144531 -5.0625 6.40625 -5.0625 Z M 6.40625 -5.0625 "/></g></g></g><g fill="#e3bd59" fill-opacity="1"><g transform="translate(89.529392, 62.258312)"><g><path d="M 3.109375 -1.15625 L 3.109375 -2.28125 C 2.585938 -2.238281 2.15625 -2.117188 1.8125 -1.921875 C 1.476562 -1.734375 1.3125 -1.523438 1.3125 -1.296875 C 1.3125 -1.066406 1.367188 -0.867188 1.484375 -0.703125 C 1.609375 -0.546875 1.757812 -0.4375 1.9375 -0.375 C 2.175781 -0.414062 2.429688 -0.535156 2.703125 -0.734375 C 2.972656 -0.929688 3.109375 -1.070312 3.109375 -1.15625 Z M 4 -1.453125 C 4 -0.929688 4.1875 -0.535156 4.5625 -0.265625 L 4 0.140625 L 3.125 -0.65625 C 2.539062 -0.132812 2.007812 0.125 1.53125 0.125 C 1.207031 0.125 0.929688 0.0234375 0.703125 -0.171875 C 0.472656 -0.378906 0.359375 -0.632812 0.359375 -0.9375 C 0.359375 -1.25 0.453125 -1.503906 0.640625 -1.703125 C 0.828125 -1.910156 1.070312 -2.070312 1.375 -2.1875 C 1.894531 -2.375 2.472656 -2.492188 3.109375 -2.546875 L 3.109375 -3.578125 C 3.109375 -4.179688 2.757812 -4.484375 2.0625 -4.484375 C 1.664062 -4.484375 1.191406 -4.394531 0.640625 -4.21875 L 0.546875 -4.5 C 0.691406 -4.613281 0.941406 -4.734375 1.296875 -4.859375 C 1.660156 -4.992188 2.003906 -5.0625 2.328125 -5.0625 C 2.660156 -5.0625 2.9375 -5.015625 3.15625 -4.921875 C 3.375 -4.835938 3.535156 -4.738281 3.640625 -4.625 C 3.753906 -4.519531 3.835938 -4.375 3.890625 -4.1875 C 3.953125 -4 3.984375 -3.847656 3.984375 -3.734375 C 3.992188 -3.628906 4 -3.484375 4 -3.296875 Z M 4 -1.453125 "/></g></g></g><g fill="#e3bd59" fill-opacity="1"><g transform="translate(94.370126, 62.258312)"><g><path d="M 4.171875 -4.921875 L 4.578125 -4.921875 L 2.71875 0.15625 C 2.476562 0.832031 2.117188 1.375 1.640625 1.78125 C 1.160156 2.1875 0.628906 2.394531 0.046875 2.40625 L 0.15625 1.859375 C 1.144531 1.816406 1.910156 1.179688 2.453125 -0.046875 L 0.234375 -4.921875 L 1.203125 -4.921875 L 2.875 -1.234375 Z M 4.171875 -4.921875 "/></g></g></g><g fill="#e3bd59" fill-opacity="1"><g transform="translate(99.178152, 62.258312)"><g><path d="M 2.921875 -5.0625 C 3.554688 -5.0625 4.082031 -4.84375 4.5 -4.40625 C 4.925781 -3.96875 5.140625 -3.367188 5.140625 -2.609375 C 5.140625 -2.117188 5.054688 -1.6875 4.890625 -1.3125 C 4.722656 -0.945312 4.503906 -0.660156 4.234375 -0.453125 C 3.710938 -0.0664062 3.132812 0.125 2.5 0.125 C 1.863281 0.125 1.335938 -0.0859375 0.921875 -0.515625 C 0.503906 -0.953125 0.296875 -1.554688 0.296875 -2.328125 C 0.296875 -2.804688 0.375 -3.234375 0.53125 -3.609375 C 0.695312 -3.984375 0.914062 -4.269531 1.1875 -4.46875 C 1.707031 -4.863281 2.285156 -5.0625 2.921875 -5.0625 Z M 2.703125 -0.234375 C 3.023438 -0.234375 3.296875 -0.359375 3.515625 -0.609375 C 3.929688 -1.046875 4.140625 -1.625 4.140625 -2.34375 C 4.140625 -3.070312 4.015625 -3.632812 3.765625 -4.03125 C 3.515625 -4.4375 3.109375 -4.640625 2.546875 -4.640625 C 2.140625 -4.484375 1.828125 -4.203125 1.609375 -3.796875 C 1.390625 -3.398438 1.28125 -2.914062 1.28125 -2.34375 C 1.28125 -1.769531 1.394531 -1.273438 1.625 -0.859375 C 1.863281 -0.441406 2.222656 -0.234375 2.703125 -0.234375 Z M 2.703125 -0.234375 "/></g></g></g></svg>